<?xml version="1.0" encoding="utf-8"?>
<!-- Generator: Adobe Illustrator 22.1.0, SVG Export Plug-In . SVG Version: 6.00 Build 0)  -->
<svg version="1.1" id="Camada_1" xmlns="http://www.w3.org/2000/svg" xmlns:xlink="http://www.w3.org/1999/xlink" x="0px" y="0px"
	 viewBox="0 0 1300 282" style="enable-background:new 0 0 1300 282;" xml:space="preserve">
<style type="text/css">
	.st0{fill:#BA2C2C;}
	.st1{fill:none;}
	.st2{fill:#FFFFFF;}
	.st3{font-family:'Orientalismus';}
	.st4{font-size:191.7538px;}
</style>
<path id="dragon" class="st0" d="M324.1,162.5C324.1,162.5,324.1,162.4,324.1,162.5c0-1.5,0-2.9-0.1-4.3v0.1
	c-0.8-14.3-5.2-28.4-13.1-40.5c3.4,21.4-3.6,43-10.5,63.6c2.9,2.1,5.9,4.2,8.8,6.3c-6.5,34.2-36.6,60-72.6,60c-40.8,0-74-33.1-74-74
	c0-31.1,19.2-57.6,46.3-68.6c20.8-7.3,38.2,4.3,40.9,7.4c3.2,3.6-0.4,6.7-0.4,6.7c14-1.4,22.1-14.7,22.1-14.7s-3.9,2.7-8,4.1
	s-9.6,0.9-7.4-0.7c2.2-1.5,3.3-5.5,3.3-5.5c-5.6,3.7-11.1,1.6-11.1,1.6c-9.9-7.4-22.4-10-22.4-10c9.5-5.2,20.8-5.6,20.8-5.6
	c1.6,6.9-4,9.5-4,9.5c9.2-0.9,13.9-6.6,13.9-6.6c1,5.5-4,9.9-4,9.9c10.3-1.3,13.9-7.4,13.9-7.4c1.6,3.4-0.3,11.7-0.3,11.7
	c14.8-7.2,18.3-25.6,18.3-25.6c-21.7,9.4-50.9-24.4-50.9-24.4c-24.8-0.6-44.7-32.6-44.7-32.6c-6.1,24,6.5,44,7.6,45.7
	c-40.2,12.4-69.4,49.9-69.4,94.1c0,54.4,44.1,98.5,98.5,98.5c52.7,0,95.8-41.4,98.4-93.5c0.1-1.4,0.1-2.8,0.1-4.3c0-0.2,0-0.5,0-0.7
	C324.1,162.6,324.1,162.5,324.1,162.5z"/>
<rect y="426.1" class="st1" width="1300" height="294"/>
<text transform="matrix(0.6381 0 0 1 392.0762 216.5146)" class="st2 st3 st4">FIT HUB</text>
</svg>
